<!--?xml version="1.0" standalone="no"?-->
              <svg id="sw-js-blob-svg" viewBox="0 0 100 100" xmlns="http://www.w3.org/2000/svg" version="1.1">
                    <defs> 
                        <linearGradient id="sw-gradient" x1="0" x2="1" y1="1" y2="0">
                            <stop id="stop1" stop-color="rgba(255, 135.723, 79.271, 1)" offset="0%"></stop>
                            <stop id="stop2" stop-color="rgba(255, 192.78, 8.728, 1)" offset="100%"></stop>
                        </linearGradient>
                    </defs>
                <path fill="url(#sw-gradient)" d="M12.6,-21.4C16.7,-19.6,20.4,-16.8,23.1,-13C25.9,-9.3,27.6,-4.6,28.6,0.6C29.5,5.8,29.7,11.5,27.3,15.8C24.9,20.1,19.9,23,14.9,26.6C10,30.2,5,34.5,-1.2,36.5C-7.3,38.5,-14.6,38.3,-21.7,35.9C-28.8,33.5,-35.7,29,-39.3,22.7C-42.9,16.4,-43.3,8.2,-42.6,0.4C-41.8,-7.3,-39.9,-14.6,-35.7,-19.9C-31.4,-25.2,-24.8,-28.4,-18.5,-28.9C-12.2,-29.4,-6.1,-27.2,-0.9,-25.7C4.3,-24.2,8.6,-23.3,12.6,-21.4Z" width="100%" height="100%" transform="translate(50 50)" stroke-width="0" style="transition: all 0.3s ease 0s;" stroke="url(#sw-gradient)"></path>
              </svg>